<?xml version="1.0" encoding="UTF-8"?>
<svg id="Layer_2" data-name="Layer 2" xmlns="http://www.w3.org/2000/svg" viewBox="0 0 238.28 73.42">
  <defs>
    <style>
      .cls-1 {
        fill: #212121;
      }

      .cls-2 {
        fill: #f9f8f4;
      }
    </style>
  </defs>
  <g id="Layer_1-2" data-name="Layer 1">
    <g>
      <path class="cls-1" d="M186.67,73.42c-3.36,0-6.58-.83-9.33-2.41l-.25-.15c-1.08-.67-2.08-1.45-2.98-2.33-1.11.83-2.31,1.61-3.58,2.33l-.22.12c-2.99,1.55-6.59,2.44-9.91,2.44-3.87,0-7.27-1.14-9.91-3.31-2.9,1.85-6.15,2.95-9.44,3.21-.54.05-1.09.08-1.61.08-5.01,0-9.52-2.02-12.33-5.46-1.08.65-2.2,1.26-3.34,1.82-5.01,2.43-10.54,3.67-16.45,3.67-6.31,0-11.5-1.56-15.42-4.62-.17-.14-.35-.27-.52-.42-6.48,4.15-14.23,5.04-19.7,5.04-3.21,0-6.57-.31-9.7-.9l-.14-.03-.21-.05c-3.3-.77-6.19-2.07-8.6-3.86-3.21,2.33-6.84,3.88-10.59,4.5-1.22.22-2.5.33-3.79.33-4.16,0-7.96-1.23-10.83-3.48-2.36,1.51-5.07,2.56-8.08,3.12l-.13.03-.2.03c-1.33.19-2.53.28-3.68.28-6.89,0-10.7-3.21-12.68-5.9-5.09-6.9-2.82-16.22-.28-24.41l.04-.13c2.88-8.76,6.44-17.47,10.03-24.56l.12-.23.39-.7C16.63,11.56,21.13,3.47,30.69.73l.28-.08.21-.05c1.84-.41,3.59-.61,5.19-.61,4.95,0,9.15,1.96,11.82,5.52,1.7,2.25,2.68,4.97,2.95,8.12,1.12-.16,2.25-.25,3.38-.25,5.29,0,9.93,1.94,12.93,5.36.53-.26,1.07-.51,1.61-.75,4.37-2.07,10.52-3.32,16.43-3.32,5.42,0,12.77,1.04,17.8,5.82,1.2-.75,2.45-1.45,3.73-2.07,5.01-2.46,10.67-3.71,16.81-3.71,6.6,0,11.92,1.57,15.81,4.67.16.13.32.26.48.4,4.52-4.25,9.68-6.4,15.36-6.4.23,0,.46,0,.7.01,2.78.1,5.29.85,7.45,2.22,3.21-1.52,6.64-2.32,9.98-2.32,5.08,0,9.68,1.86,12.93,5.23.38.39.74.81,1.08,1.24,4.91-3.33,10.26-5.01,15.94-5.01h.67s.3.03.3.03c2.52.22,4.67.85,6.54,1.92.8-.38,1.63-.7,2.46-.97,2.01-.66,4.25-1.01,6.45-1.01,4.06,0,7.61,1.18,10.27,3.43l.08.07c5.19,4.49,4.64,11.06,4.44,13.53l-.04.41-.02.17c-.71,5.13-2.28,9.74-3.8,13.63l.44.54.17.23c.33.46.63.95.9,1.49,3.79,1.63,5.17,4.35,5.65,6.38.35,1.47.77,5.27-2.73,8.77-.47.48-.92.87-1.32,1.21-.31,1.92-1.13,5.46-4.64,7.56-1.39.84-3.01,1.28-4.66,1.28s-3.04-.43-4.12-.88c-.97.33-2.3.68-3.86.68-.56,0-1.12-.05-1.67-.14l-.63-.1-.6-.2c-.73-.24-1.41-.56-2.04-.97-2.47,1.03-5.11,1.57-7.87,1.6h-.15c-3.21,0-6-.68-8.31-2.01-.25.12-.51.24-.75.35-2.45,1.09-5.23,1.68-8.02,1.68Z"/>
      <path class="cls-2" d="M186.67,72.05c-3.12,0-6.11-.77-8.65-2.23l-.1-.06-.1-.06c-1.09-.68-2.37-1.65-3.58-3.01-1.28,1.05-2.72,2.05-4.38,2.98l-.2.11c-2.78,1.44-6.15,2.27-9.25,2.27-3.94,0-7.35-1.31-9.79-3.67-2.92,2.07-6.21,3.31-9.67,3.57-.52.05-1.03.07-1.51.07-5.09,0-9.57-2.27-11.98-5.92-1.37.89-2.8,1.7-4.29,2.42-4.82,2.34-10.15,3.53-15.85,3.53-6,0-10.9-1.46-14.58-4.33-.44-.34-.85-.69-1.25-1.06-6.28,4.4-14.04,5.39-19.81,5.39-3.13,0-6.4-.3-9.45-.88l-.15-.03-.15-.03c-3.52-.83-6.51-2.27-8.9-4.25-3.17,2.5-6.94,4.23-10.83,4.88-1.16.21-2.35.31-3.56.31-4.26,0-8.07-1.38-10.74-3.83-2.19,1.58-4.94,2.84-8.42,3.49l-.14.03-.14.02c-1.26.18-2.4.27-3.48.27-6.32,0-9.78-2.9-11.58-5.34-4.71-6.38-2.51-15.32-.08-23.2l.04-.12c2.85-8.68,6.38-17.33,9.94-24.35l.11-.2.38-.69c3.19-5.73,7.51-13.5,16.53-16.07l.2-.06.21-.05c1.74-.38,3.39-.58,4.89-.58,4.51,0,8.31,1.77,10.72,4.97,1.81,2.4,2.72,5.35,2.74,8.93,1.53-.33,3.1-.51,4.68-.51,5.31,0,9.88,2.08,12.56,5.72.83-.44,1.67-.84,2.53-1.22,4.23-2.01,10.16-3.2,15.89-3.2s12.94,1.1,17.61,6.21c1.43-.96,2.94-1.83,4.53-2.6,4.82-2.37,10.28-3.57,16.21-3.57,6.28,0,11.31,1.47,14.96,4.37.48.38.94.79,1.38,1.21,4.48-4.59,9.6-6.91,15.32-6.91.21,0,.42,0,.63.01,3.29.12,5.68,1.18,7.41,2.43,3.23-1.66,6.7-2.53,10.09-2.53,4.71,0,8.95,1.71,11.95,4.81.65.68,1.24,1.41,1.75,2.19,4.9-3.63,10.42-5.55,16.25-5.55h.61s.24.03.24.03c2.59.22,4.76.92,6.58,2.12.95-.49,1.94-.9,2.96-1.23,1.87-.61,3.97-.95,6.03-.95,3.73,0,6.98,1.07,9.39,3.1l.07.06c4.65,4.03,4.15,10.09,3.96,12.37l-.04.39-.02.12c-.69,5.02-2.27,9.68-4.05,14.15.12.11.23.22.34.33l.21.21.4.49.14.19c.44.62.76,1.23,1.01,1.76,1.74.67,4.49,2.12,5.32,5.62.29,1.25.65,4.47-2.36,7.49-.59.6-1.16,1.07-1.63,1.45-.26,1.74-.83,5.17-4.07,7.11-1.19.71-2.55,1.09-3.96,1.09h0c-1.68,0-3.06-.52-4.07-.98-.98.37-2.3.78-3.91.78-.49,0-.98-.04-1.45-.12l-.52-.08-.5-.16c-.85-.28-1.63-.7-2.31-1.24-2.5,1.16-5.19,1.77-8.05,1.8h-.14c-3.27,0-6.03-.74-8.25-2.22-.43.24-.89.46-1.35.66-2.29,1.03-4.88,1.57-7.48,1.57Z"/>
      <path class="cls-1" d="M226.58,54.6c-1.29-.98-1.37-5.04-3.62-2.45-.94,1-1.63,2.29-2.8,2.77-.64.27-1.71.66-2.38.51,3.44-7.55,7.56-15.58,8.79-23.95.29-2.44.34-5.51-1.76-7.16-4.06-2.79-10.16-.96-13.68,2.13-1.67,1.17-2.03-.68-3.2-1.88-1.21-1.17-2.96-1.56-4.62-1.57-8.83.13-15.81,6.35-20.39,13.89-.14.25-.4.61-.28.05.54-2.66.88-5.72.27-8.37-1.63-7.69-10.8-8.53-16.69-5-1.28.57-2.38,1.94-3.73,2.21-.57-.1-.94-.83-1.26-1.22-1.15-1.84-3.38-2.96-5.58-2.92-7.89-.17-13.08,6.88-16.93,14.12-.17-.24-.04-.77-.09-1.19-.03-3.63-1.61-7.03-4.55-9.05-2.76-2.18-8.63-2.87-12.98-2.44-7.94.55-15.14,4.39-20.2,10.21-.33.26-.64.94-.97,1.04,2.08-13.12-17.93-13.03-26.99-9.05-4.28,1.77-8.16,4.6-11.28,7.98-.24.19.15-.54.33-1.04.05-.21.17-.45.22-.66,3.57-11.98-12.69-12.08-18.2-5.55-2.4,2.42-3.57,5.64-4.87,8.8-.53,1.14-1.78,3.51-2.27,2.31-.15-1,.72-2.73,1.19-3.93,1.98-5.69,7.12-17.19,3.79-22.32-2.75-4.15-9.36-2.8-12.85-.38-8.43,6.09-14.36,23.71-18.2,34.35-1.53,5.41-4.47,12.91-1.08,17.9,3.91,4.76,13.46,1.88,16.48-2.27,1.87-2.2,2.94-4.86,4.03-7.46,1.01-2.92,3.93-5.97,2.28-1.17-2.21,5.24-3.41,11.32,3.29,13.03,6.91,1.57,14.33-2.71,17.58-8.93.26-.42.37-.24.49.14,1.06,3.77,3.88,6.83,8.94,8.2,9.52,2,23.18,1.39,28.8-7.52.39-.58.68-1.57,1.02-2.1.55,2.87,1.66,5.58,3.99,7.4,2.64,2.3,6.68,3.21,11.11,3.15,9.06.02,17.68-4.47,23.29-11.38.56-.63,1.1-1.47,1.63-2.08.18-.07.04.32.02.46-.8,3.95-1.54,8.46,1.63,11.35,6.51,4.34,14.49-.48,17.89-7.34,2.71-5.43,5.21-13.24,7.68-19.03.5-1.41,2.78-2.56,1.78-.14-1.56,4.05-3.29,8.44-4.9,12.6-1.89,4.77-5.86,13.57,1.58,15.33,7.23,1.48,13.85-4.47,16.97-10.22.67-1.03,1.21-2.44,1.92-3.46.02,0,.03.05.03.12-.63,3.98-.34,8.73,2.94,11.53,4.05,3.51,10.5,2.66,14.34-.67,2.92-2.65,2.68.4,4.77,1.81,5.75,3.15,12.7-.6,16.1-5.45.14-.17.27-.3.39-.34.24-.1.44.26.62.66.2.43.38.89.46,1.37.5,1.16-1.75,4.35-.16,4.63,1.75.03,3.45-1.55,5.24-.77,1.04.26,2.17,1.28,3.2.85.92-.77.76-2.5,1.13-3.63.34-1.48,1.58-2.34,2.67-3.28.45-.39.97-.89,1.07-1.47.07-1-2.56-1.23-3.35-1.98l-.09-.08ZM55.9,42.21c-2.91,6.54-.1,3.56-5.02.68-.12-.1-.44-.29-.27-.45.35-.28.92-.52,1.37-.73,2.28-.9,4.36-2.13,6.14-3.78-.61,1.22-1.59,2.77-2.17,4.18l-.05.1ZM94.48,44.01c-.92,2.35-1.42,4.82-1.74,7.01-.05.06-.12-.02-.23-.18-2.41-4-10.09-1.16-14.36-2.17-1.46-.23-4.09-1.35-1.56-2.56,2.82-1.12,6.16-.25,9.03-.74,3.77-.31,7.06-1.72,9.76-3.76-.06.45-.69,1.71-.87,2.28l-.05.12Z"/>
    </g>
  </g>
</svg>