<?xml version="1.0" encoding="UTF-8"?>
<svg id="Layer_2" data-name="Layer 2" xmlns="http://www.w3.org/2000/svg" viewBox="0 0 74.57 73.45">
  <defs>
    <style>
      .cls-1 {
        fill: #8f83e2;
      }

      .cls-2 {
        fill: #f9f8f4;
      }
    </style>
  </defs>
  <g id="Layer_1-2" data-name="Layer 1">
    <g>
      <path class="cls-1" d="M38.56,73.45c-3.98,0-7.8-1.28-10.67-3.55-1.62,1.05-3.41,1.88-5.34,2.48-2.21.68-4.54,1.04-6.73,1.04-5.74,0-10.43-2.36-13.22-6.63l-.15-.23-.14-.24c-4.1-7.33-1.83-15.21-.18-20.96.17-.57.33-1.14.48-1.69l.05-.17.07-.22c3.47-10.53,7.09-19.23,11.06-26.58l.07-.12c2.45-4.36,5.22-8.89,9.74-12.27C27.14,1.62,31.86,0,36.21,0c3.19,0,6.19.85,8.69,2.45l.28.18.27.2c3.46,2.63,5.39,6.3,5.74,10.9,1.13-.17,2.27-.25,3.41-.25,5.74,0,10.71,2.27,13.62,6.22,2.04,2.76,4.01,7.53,1.85,14.56l-.09.28-.04.13c-1.17,3.39-3.18,6.49-5.88,9.08,1.85.81,3.43,2.26,4.46,4.16.06.11.12.22.18.33,2.77,1.2,4.59,3.1,5.43,5.66.88,2.68.42,5.6-1.26,8-.28.4-.56.75-.86,1.09l-.19.22-.13.13c-.49.5-.96.92-1.37,1.26-1.13,6.49-5.56,8.83-9.4,8.83-.79,0-1.59-.1-2.39-.3l-.21-.06c-.56-.16-1.05-.34-1.44-.49-.99.34-2.25.66-3.76.68h-.14c-1.91-.02-3.72-.6-5.2-1.65-2.71,1.12-5.53,1.73-8.37,1.83-.26.01-.54.02-.83.02h0Z"/>
      <path class="cls-2" d="M38.56,72.08c-4.07,0-7.89-1.41-10.58-3.9-1.74,1.27-3.68,2.23-5.84,2.89-2.09.64-4.27.98-6.32.98-5.26,0-9.54-2.13-12.07-6.01l-.13-.19-.11-.2c-3.82-6.83-1.65-14.39-.06-19.91.17-.58.33-1.15.48-1.7l.05-.17.05-.16c3.45-10.45,7.03-19.07,10.96-26.35l.06-.11c2.38-4.22,5.06-8.62,9.36-11.83,3.32-2.53,7.72-4.05,11.79-4.05,2.93,0,5.68.77,7.96,2.23l.23.15.22.17c4.17,3.18,5.27,7.51,5.26,11.44,1.54-.33,3.12-.51,4.72-.51,5.3,0,9.86,2.06,12.52,5.66,1.85,2.51,3.64,6.86,1.64,13.35l-.09.27-.03.08c-1.37,3.96-3.99,7.51-7.44,10.2,2.55.22,4.81,1.74,6.11,4.15.14.26.27.51.38.75,1.63.63,4.12,1.93,5.13,5.02.74,2.27.35,4.74-1.08,6.79-.25.35-.5.67-.76.95l-.16.18-.13.13c-.58.6-1.15,1.07-1.62,1.45-.01.01-.03.02-.04.04-1.07,7.58-6.48,8.18-8.13,8.18-.68,0-1.38-.09-2.06-.26l-.19-.05c-.68-.19-1.26-.43-1.75-.64-.96.36-2.25.76-3.82.78h-.13c-1.9-.02-3.64-.68-4.98-1.87-2.73,1.23-5.66,1.94-8.63,2.04-.26.01-.52.02-.78.02Z"/>
      <path class="cls-1" d="M66.13,57.2c-.08.12-.17.23-.26.32l-.09.1c-1.08,1.11-2.8,1.99-3.22,3.67-.51,1.21-.01,4.37-2.06,3.86-1.1-.31-2.21-1.15-3.42-1.16-1.35-.05-2.75,1.03-4.06,1.04-1.41-.01-.36-2.06-.14-2.84.71-1.67-.1-2.88-.72-4.13-.12.16-.23.31-.34.46-3.1,3.98-7.84,6.54-12.75,6.69-3.9.2-8.37-1.88-8.23-6.39.02-2.2.75-4.2,1.48-6.23.41-1.14.84-2.59.56-2.92-1.42-.5-3.28,5.41-3.87,6.36-1.82,3.91-4.33,7.08-8.9,8.5-3.54,1.09-8.4,1.18-10.62-2.23-2.73-4.89-.36-11.31,1.06-16.45,2.99-9.06,6.43-17.73,10.48-25.24,1.98-3.52,4.2-7.26,7.52-9.72,3.13-2.41,8.4-3.77,11.92-1.51,3.39,2.58,2.82,6.97,1.7,11.9-1.08,4.19-2.59,8.15-3.99,11.83-.37.99-1.56,3.47-.96,4.06.92.25,1.75-1.93,2.23-2.89,1.06-2.58,2.08-5.19,3.82-7.28,5.23-7.54,22.87-7.91,18.94,4.85l-.04.13c-1.36,3.93-4.57,7.2-8.39,9.04-.74.4-1.74.68-2.35,1.22-.38.38-.05.82.58,1.33,3.98,2.98,3.69,7.88,1.62,12.05,1.17-.21,2.5-.34,3.43-1.08.73-.52,1.21-1.35,2.01-2.28.38-.43.95-1.04,1.49-1.01.3,0,.56.27.73.6.49.88.69,2.01,1.45,2.73,1.12,1.12,4.47,1.06,3.37,2.63Z"/>
    </g>
  </g>
</svg>